HIERARCHY
ROOT Hips
{
	OFFSET 0.000000 0.000000 0.000000
	CHANNELS 6 Xposition Yposition Zposition Zrotation Yrotation Xrotation 
	JOINT LHipJoint
	{
		OFFSET 0.000000 0.000000 0.000000
		CHANNELS 3 Zrotation Yrotation Xrotation
		JOINT LeftUpLeg
		{
			OFFSET 1.363060 -1.794630 0.839290
			CHANNELS 3 Zrotation Yrotation Xrotation
			JOINT LeftLeg
			{
				OFFSET 2.448110 -6.726130 0.000000
				CHANNELS 3 Zrotation Yrotation Xrotation
				JOINT LeftFoot
				{
					OFFSET 2.562200 -7.039590 0.000000
					CHANNELS 3 Zrotation Yrotation Xrotation
					JOINT LeftToeBase
					{
						OFFSET 0.157640 -0.433110 2.322550
						CHANNELS 3 Zrotation Yrotation Xrotation
						End Site
						{
							OFFSET 0.000000 0.000000 0.000000
						}
					}
				}
			}
		}
	}
	JOINT RHipJoint
	{
		OFFSET 0.000000 0.000000 0.000000
		CHANNELS 3 Zrotation Yrotation Xrotation
		JOINT RightUpLeg
		{
			OFFSET -1.305520 -1.794630 0.839290
			CHANNELS 3 Zrotation Yrotation Xrotation
			JOINT RightLeg
			{
				OFFSET -2.542530 -6.985550 0.000000
				CHANNELS 3 Zrotation Yrotation Xrotation
				JOINT RightFoot
				{
					OFFSET -2.568260 -7.056230 0.000000
					CHANNELS 3 Zrotation Yrotation Xrotation
					JOINT RightToeBase
					{
						OFFSET -0.164730 -0.452590 2.363150
						CHANNELS 3 Zrotation Yrotation Xrotation
						End Site
						{
							OFFSET 0.000000 0.000000 0.000000
						}
					}
				}
			}
		}
	}
	JOINT LowerBack
	{
		OFFSET 0.000000 0.000000 0.000000
		CHANNELS 3 Zrotation Yrotation Xrotation
		JOINT Spine
		{
			OFFSET 0.028270 2.035590 -0.193380
			CHANNELS 3 Zrotation Yrotation Xrotation
			JOINT Spine1
			{
				OFFSET 0.056720 2.048850 -0.042750
				CHANNELS 3 Zrotation Yrotation Xrotation
				JOINT Neck
				{
					OFFSET 0.000000 0.000000 0.000000
					CHANNELS 3 Zrotation Yrotation Xrotation
					JOINT Neck1
					{
						OFFSET -0.054170 1.746240 0.172020
						CHANNELS 3 Zrotation Yrotation Xrotation
						JOINT Head
						{
							OFFSET 0.104070 1.761360 -0.123970
							CHANNELS 3 Zrotation Yrotation Xrotation
							End Site
							{
								OFFSET 0.000000 0.000000 0.000000
							}
						}
					}
				}
				JOINT LeftShoulder
				{
					OFFSET 0.000000 0.000000 0.000000
					CHANNELS 3 Zrotation Yrotation Xrotation
					JOINT LeftArm
					{
						OFFSET 3.362410 1.200890 -0.311210
						CHANNELS 3 Zrotation Yrotation Xrotation
						JOINT LeftForeArm
						{
							OFFSET 4.983000 -0.000000 -0.000000
							CHANNELS 3 Zrotation Yrotation Xrotation
							JOINT LeftHand
							{
								OFFSET 3.483560 -0.000000 -0.000000
								CHANNELS 3 Zrotation Yrotation Xrotation
								JOINT LeftFingerBase
								{
									OFFSET 0.000000 0.000000 0.000000
									CHANNELS 3 Zrotation Yrotation Xrotation
									JOINT LeftHandIndex1
									{
										OFFSET 0.715260 -0.000000 -0.000000
										CHANNELS 3 Zrotation Yrotation Xrotation
										End Site
										{
											OFFSET 0.000000 0.000000 0.000000
										}
									}
								}
								JOINT LThumb
								{
									OFFSET 0.000000 0.000000 0.000000
									CHANNELS 3 Zrotation Yrotation Xrotation
									End Site
									{
										OFFSET 0.000000 0.000000 0.000000
									}
								}
							}
						}
					}
				}
				JOINT RightShoulder
				{
					OFFSET 0.000000 0.000000 0.000000
					CHANNELS 3 Zrotation Yrotation Xrotation
					JOINT RightArm
					{
						OFFSET -3.136600 1.374050 -0.404650
						CHANNELS 3 Zrotation Yrotation Xrotation
						JOINT RightForeArm
						{
							OFFSET -5.241900 -0.000000 -0.000000
							CHANNELS 3 Zrotation Yrotation Xrotation
							JOINT RightHand
							{
								OFFSET -3.444170 -0.000000 -0.000000
								CHANNELS 3 Zrotation Yrotation Xrotation
								JOINT RightFingerBase
								{
									OFFSET 0.000000 0.000000 0.000000
									CHANNELS 3 Zrotation Yrotation Xrotation
									JOINT RightHandIndex1
									{
										OFFSET -0.622530 -0.000000 -0.000000
										CHANNELS 3 Zrotation Yrotation Xrotation
										End Site
										{
											OFFSET 0.000000 0.000000 0.000000
										}
									}
								}
								JOINT RThumb
								{
									OFFSET 0.000000 0.000000 0.000000
									CHANNELS 3 Zrotation Yrotation Xrotation
									End Site
									{
										OFFSET 0.000000 0.000000 0.000000
									}
								}
							}
						}
					}
				}
			}
		}
	}
}
MOTION
Frames: 11
Frame Time: 0.008333
49.968233 17.204395 -8.421695 -11.528086 -84.358866 13.007240 4.392646 2.088545 -0.649689 -20.609410 0.283804 -4.759280 0.496053 6.105367 18.789090 -0.078900 3.715566 -10.424664 0.220600 -3.023200 -8.343400 -8.548461 -2.534792 -2.141100 31.797383 2.453604 -7.537630 -3.364288 -10.219339 30.729051 -1.561748 -0.256703 -23.607383 -1.171400 -6.869900 19.330400 1.090661 0.176806 -2.410657 0.644334 0.129879 -1.969458 0.182081 -0.204658 5.321640 -4.702294 -4.285467 -12.646647 7.045744 -5.641590 6.177075 2.687800 -2.486700 4.396200 -7.780126 -7.453311 0.932177 -78.061940 -0.466200 25.899525 11.234264 -19.156663 -2.771834 -1.274232 -0.598016 -6.809101 17.244196 16.473209 5.552700 -7.125000 0.000000 0.000000 -8.897900 47.460500 -0.544300 8.650308 7.184400 0.801171 75.281069 -5.036288 22.029524 -12.512836 22.496794 -3.140542 0.264619 -0.734571 0.629624 -22.638277 3.944083 -1.994600 7.125000 0.000000 0.000000 2.808400 -24.851200 1.369700 
49.966282 17.204190 -8.420463 -11.408723 -84.391391 12.892339 4.393149 2.089969 -0.649006 -20.638978 0.281549 -4.732315 0.494744 6.100435 18.776618 -0.079613 3.733423 -10.449382 0.216100 -2.992700 -8.258400 -8.549334 -2.533702 -2.142876 31.772618 2.450911 -7.532031 -3.368584 -10.218761 30.732834 -1.576570 -0.447545 -23.833775 -1.037800 -6.479100 18.181100 1.078525 0.187182 -2.428874 0.643264 0.143469 -1.969839 0.195275 -0.197776 5.325223 -4.729008 -4.284839 -12.640230 7.052137 -5.637937 6.188716 2.698100 -2.485100 4.402300 -7.778000 -7.449855 0.929254 -78.085858 -0.408906 25.974419 11.308012 -19.245996 -2.795581 -1.271065 -0.602798 -6.872538 17.235186 16.504719 5.560400 -7.125000 0.000000 0.000000 -8.918000 47.495300 -0.553300 8.649117 7.181473 0.801507 75.263337 -5.043113 21.975436 -12.491751 22.474339 -3.137475 0.266989 -0.737560 0.664367 -22.754277 3.939150 -2.005600 7.125000 0.000000 0.000000 2.719200 -24.848200 1.326200 
49.965050 17.205114 -8.420361 -11.490971 -84.381042 13.000746 4.393644 2.087192 -0.649958 -20.629724 0.254774 -4.767850 0.496847 6.109214 18.797254 -0.079252 3.736702 -10.461351 0.219800 -3.018100 -8.329100 -8.548382 -2.534823 -2.141292 31.781508 2.452942 -7.549302 -3.361113 -10.213177 30.708152 -1.562804 -0.274079 -23.625866 -1.123200 -6.731900 18.923500 1.091804 0.185367 -2.469693 0.642438 0.139707 -1.968971 0.180090 -0.200077 5.359426 -4.708448 -4.290065 -12.690533 7.051984 -5.646731 6.210767 2.692700 -2.487600 4.426200 -7.779512 -7.449391 0.928678 -78.079006 -0.466065 25.933089 11.295647 -19.225730 -2.789224 -1.268550 -0.596659 -6.828784 17.230516 16.418878 5.529200 -7.125000 0.000000 0.000000 -8.901100 47.401700 -0.531500 8.647890 7.181690 0.799124 75.274830 -5.031705 21.951503 -12.493011 22.475196 -3.133767 0.270156 -0.731206 0.661902 -22.606512 3.791295 -1.926200 7.125000 0.000000 0.000000 2.827800 -25.021800 1.367900 
49.961559 17.204190 -8.422106 -12.008482 -84.381073 13.484011 4.394232 2.082648 -0.654908 -20.566258 0.271726 -4.738980 0.501698 6.113631 18.820140 -0.078650 3.739011 -10.477864 0.220100 -3.019800 -8.333800 -8.551363 -2.538520 -2.141029 31.859505 2.494929 -7.470743 -3.357239 -10.206247 30.686979 -1.568184 -0.383494 -23.730648 -1.091100 -6.638100 18.647600 1.115575 0.185956 -2.463959 0.649343 0.137053 -1.963328 0.201929 -0.203506 5.378124 -4.708297 -4.287734 -12.687462 7.051084 -5.644007 6.207737 2.690900 -2.486500 4.420200 -7.779143 -7.448760 0.932351 -78.056105 -0.502671 26.046487 11.286841 -19.219113 -2.785683 -1.269139 -0.599126 -6.964250 17.242098 16.400769 5.527400 -7.125000 0.000000 0.000000 -8.883300 47.384100 -0.526600 8.654373 7.176961 0.800487 75.261342 -5.024412 21.941551 -12.472313 22.450984 -3.128486 0.267349 -0.733916 0.685472 -22.662148 3.893505 -1.975600 7.125000 0.000000 0.000000 2.787800 -24.905800 1.356100 
49.958889 17.203984 -8.423133 -12.386554 -84.380554 13.850662 4.395096 2.078369 -0.658401 -20.522463 0.272589 -4.738187 0.506635 6.122553 18.850494 -0.078067 3.743643 -10.497379 0.221600 -3.030400 -8.363300 -8.553257 -2.541509 -2.139929 31.913890 2.525680 -7.424917 -3.351968 -10.198125 30.659562 -1.569857 -0.444894 -23.779216 -1.075300 -6.591500 18.510500 1.138498 0.188446 -2.475909 0.652993 0.137379 -1.960108 0.209642 -0.204690 5.397274 -4.707806 -4.287500 -12.694775 7.053888 -5.644065 6.212271 2.692300 -2.486100 4.422700 -7.779870 -7.448173 0.934562 -78.037612 -0.535564 26.126291 11.281119 -19.213401 -2.782690 -1.268892 -0.599485 -7.050763 17.252432 16.368200 5.520000 -7.125000 0.000000 0.000000 -8.863900 47.350500 -0.518000 8.657243 7.173816 0.800317 75.258207 -5.023973 21.926626 -12.461035 22.438281 -3.124272 0.267249 -0.733102 0.695388 -22.643844 3.892026 -1.972800 7.125000 0.000000 0.000000 2.801600 -24.909300 1.362500 
49.956117 17.203779 -8.424365 -12.815235 -84.378609 14.265893 4.396113 2.073674 -0.662390 -20.471784 0.279398 -4.741246 0.512430 6.133348 18.886554 -0.077086 3.744465 -10.517049 0.223700 -3.044700 -8.403300 -8.555256 -2.544891 -2.138541 31.975503 2.559797 -7.375307 -3.346336 -10.189599 30.630897 -1.571666 -0.506941 -23.829203 -1.064200 -6.558600 18.414200 1.165899 0.190843 -2.486683 0.656967 0.137236 -1.956532 0.216041 -0.206132 5.416885 -4.706762 -4.287681 -12.700390 7.056993 -5.644793 6.214214 2.693700 -2.486200 4.423000 -7.781155 -7.448531 0.937409 -78.023030 -0.590398 26.157101 11.251464 -19.177816 -2.771983 -1.269416 -0.597460 -7.086066 17.260782 16.326681 5.508600 -7.125000 0.000000 0.000000 -8.843600 47.306100 -0.507000 8.660342 7.170981 0.800339 75.257183 -5.024006 21.917107 -12.450764 22.426633 -3.120123 0.266942 -0.732005 0.703543 -22.615777 3.890985 -1.969000 7.125000 0.000000 0.000000 2.822800 -24.912900 1.372600 
49.953550 17.203574 -8.425289 -13.205509 -84.377434 14.643751 4.397039 2.069634 -0.666030 -20.426149 0.289291 -4.741532 0.517357 6.141613 18.915433 -0.076318 3.746125 -10.533013 0.225800 -3.058800 -8.442500 -8.556923 -2.548051 -2.137434 32.030171 2.587707 -7.331115 -3.341617 -10.182337 30.606188 -1.574106 -0.570680 -23.885771 -1.049800 -6.515500 18.287600 1.192923 0.192838 -2.496566 0.660339 0.136983 -1.953151 0.219125 -0.207438 5.434304 -4.706422 -4.287760 -12.702984 7.059589 -5.645293 6.213191 2.695300 -2.486200 4.420900 -7.782634 -7.449675 0.940215 -78.019790 -0.658252 26.122865 11.205454 -19.120412 -2.755955 -1.269982 -0.592745 -7.050647 17.260752 16.276047 5.491200 -7.125000 0.000000 0.000000 -8.829200 47.250200 -0.493900 8.663004 7.168810 0.800688 75.257289 -5.024879 21.911205 -12.440403 22.415306 -3.116142 0.266515 -0.731292 0.710827 -22.597031 3.896784 -1.969300 7.125000 0.000000 0.000000 2.837200 -24.908300 1.380000 
49.951291 17.203368 -8.425802 -13.493316 -84.379159 14.925583 4.397880 2.066653 -0.668837 -20.394406 0.297621 -4.742856 0.521072 6.148245 18.937992 -0.075665 3.748590 -10.549473 0.227600 -3.071100 -8.476800 -8.557953 -2.550446 -2.136824 32.068314 2.605371 -7.300388 -3.337706 -10.176355 30.585802 -1.575906 -0.610928 -23.923124 -1.041000 -6.488900 18.209600 1.215008 0.194111 -2.509591 0.662525 0.136196 -1.950309 0.218610 -0.208765 5.451751 -4.707455 -4.287675 -12.709041 7.062137 -5.645024 6.211700 2.697300 -2.485800 4.419400 -7.784266 -7.451234 0.942390 -78.029583 -0.734888 26.022971 11.150814 -19.050276 -2.737289 -1.270596 -0.585653 -6.946893 17.256862 16.222516 5.471200 -7.125000 0.000000 0.000000 -8.818200 47.190000 -0.480100 8.664660 7.167547 0.801229 75.257653 -5.023328 21.908743 -12.430765 22.404892 -3.112446 0.266259 -0.730529 0.718225 -22.577514 3.896837 -1.967000 7.125000 0.000000 0.000000 2.852000 -24.910000 1.387000 
49.949238 17.203266 -8.426110 -13.721895 -84.381399 15.150884 4.398620 2.064371 -0.670993 -20.370722 0.302386 -4.740936 0.523814 6.152456 18.953150 -0.075330 3.753880 -10.566322 0.229300 -3.081900 -8.506700 -8.558520 -2.552467 -2.136475 32.096484 2.615433 -7.277624 -3.334620 -10.171754 30.570157 -1.577323 -0.630464 -23.945639 -1.037100 -6.477200 18.175400 1.234432 0.194742 -2.523407 0.664113 0.135124 -1.948086 0.215563 -0.210115 5.466442 -4.707869 -4.287594 -12.712066 7.063230 -5.644888 6.209328 2.698300 -2.485600 4.416900 -7.785549 -7.453123 0.944094 -78.049874 -0.813822 25.874017 11.090119 -18.971438 -2.716851 -1.270960 -0.576557 -6.790165 17.249220 16.162603 5.447500 -7.125000 0.000000 0.000000 -8.809800 47.121900 -0.464800 8.665872 7.166810 0.801874 75.258476 -5.022981 21.909170 -12.421087 22.394751 -3.108800 0.266003 -0.729969 0.724374 -22.563208 3.899243 -1.966300 7.125000 0.000000 0.000000 2.862800 -24.908800 1.392400 
49.947492 17.203163 -8.425802 -13.806739 -84.387224 15.238055 4.399153 2.063508 -0.671860 -20.365976 0.302384 -4.738403 0.525233 6.154836 18.961437 -0.075147 3.760784 -10.583358 0.230200 -3.088300 -8.524800 -8.558228 -2.553382 -2.137176 32.102177 2.609896 -7.268602 -3.332413 -10.168304 30.558979 -1.577335 -0.622367 -23.940073 -1.037900 -6.479700 18.182700 1.245422 0.194263 -2.538737 0.664202 0.133504 -1.946581 0.208787 -0.211200 5.479459 -4.707768 -4.287369 -12.716382 7.062536 -5.644282 6.207414 2.698300 -2.485300 4.415000 -7.786416 -7.454484 0.944873 -78.076836 -0.879210 25.711192 11.043443 -18.908741 -2.701234 -1.270865 -0.567825 -6.620055 17.240950 16.112981 5.426900 -7.125000 0.000000 0.000000 -8.805300 47.065100 -0.452100 8.666048 7.166528 0.802558 75.259622 -5.019880 21.909977 -12.410607 22.383919 -3.105260 0.265724 -0.729858 0.732313 -22.559289 3.905729 -1.968600 7.125000 0.000000 0.000000 2.865900 -24.902100 1.394400 
49.945747 17.203060 -8.425392 -13.874756 -84.395707 15.307533 4.399677 2.062856 -0.672566 -20.364601 0.299129 -4.730268 0.526065 6.155659 18.965061 -0.075343 3.771926 -10.602415 0.230700 -3.091800 -8.534400 -8.557914 -2.554082 -2.137915 32.104772 2.605161 -7.259932 -3.330845 -10.165739 30.551087 -1.577682 -0.610441 -23.935138 -1.038600 -6.481700 18.188800 1.253893 0.194020 -2.553180 0.664325 0.132412 -1.945298 0.204392 -0.212042 5.490639 -4.711049 -4.286437 -12.717971 7.061011 -5.642453 6.207278 2.698600 -2.484500 4.413700 -7.786951 -7.455387 0.945378 -78.101808 -0.930979 25.580817 11.008173 -18.860791 -2.689491 -1.270796 -0.561060 -6.485418 17.234845 16.077259 5.412000 -7.125000 0.000000 0.000000 -8.802300 47.023900 -0.442900 8.666226 7.165926 0.803132 75.259181 -5.018168 21.911909 -12.400849 22.373870 -3.101845 0.265559 -0.729614 0.742128 -22.553237 3.907776 -1.968700 7.125000 0.000000 0.000000 2.870500 -24.900400 1.396700 
